<svg xmlns="http://www.w3.org/2000/svg" xmlns:xlink="http://www.w3.org/1999/xlink">
  <symbol viewBox="0 0 21 37" id="icon-arrow" xmlns="http://www.w3.org/2000/svg">
    <path d="m3 33.82 15.41-15.41L3 3" />
  </symbol>
  <symbol viewBox="0 0 22 23" id="icon-arrow-in-circle" xmlns="http://www.w3.org/2000/svg">
    <g opacity=".7" stroke-width="2" stroke-linecap="round" stroke-linejoin="round">
      <path d="M11 21.5c5.523 0 10-4.477 10-10s-4.477-10-10-10-10 4.477-10 10 4.477 10 10 10Z" />
      <path d="m11 15.5 4-4-4-4m-4 4h8" />
    </g>
  </symbol>
  <symbol viewBox="0 0 98 98" id="icon-bluetooth" xmlns="http://www.w3.org/2000/svg">
    <path
      d="M94.796 49c1.77 0 3.215 1.437 3.1 3.203a49 49 0 0 1-97.791 0C-.011 50.435 1.435 49 3.205 49s3.191 1.437 3.324 3.202a42.592 42.592 0 0 0 84.942 0C91.604 50.437 93.026 49 94.796 49Z"
      fill="#FF4948" />
    <path
      opacity=".5"
      d="M97 49c0 26.51-21.49 48-48 48S1 75.51 1 49 22.49 1 49 1s48 21.49 48 48ZM5.702 49c0 23.913 19.385 43.298 43.298 43.298S92.298 72.913 92.298 49 72.913 5.702 49 5.702 5.702 25.087 5.702 49Z"
      fill="#F68080" />
    <circle cx="48.5" cy="48.5" r="34.5" stroke="#FDD8D8" stroke-width="2" stroke-linecap="round" />
    <path
      d="M58.672 54.234 51.218 48.5l7.454-5.734c.574-.444.91-1.128.91-1.853a2.348 2.348 0 0 0-.915-1.85L48.75 31.48a.605.605 0 0 0-.085-.055A2.301 2.301 0 0 0 47.332 31 2.42 2.42 0 0 0 45 33.44v10.204l-4.26-3.602a1.167 1.167 0 0 0-1.66.195l-1.42 1.847c-.383.5-.3 1.214.185 1.614L43.61 48.5l-5.758 4.796c-.49.4-.576 1.116-.193 1.62l1.42 1.847a1.167 1.167 0 0 0 1.67.187L45 53.356V63.56A2.42 2.42 0 0 0 47.332 66a2.3 2.3 0 0 0 1.33-.425.61.61 0 0 0 .087-.055l9.917-7.583a2.334 2.334 0 0 0 .005-3.703Zm-.714 2.776-9.845 7.53a.61.61 0 0 0-.076.048 1.154 1.154 0 0 1-.704.245 1.272 1.272 0 0 1-1.167-1.273V52.1a.583.583 0 0 0-.96-.446l-5.203 4.398-1.413-1.853 6.304-5.25a.584.584 0 0 0 0-.896l-6.311-5.256 1.412-1.855 5.211 4.406a.583.583 0 0 0 .96-.446V33.44a1.272 1.272 0 0 1 1.166-1.273c.256.001.503.087.704.245a.58.58 0 0 0 .076.048l9.846 7.53a1.167 1.167 0 0 1 .003 1.852l-8.055 6.196a.583.583 0 0 0 0 .924l8.055 6.197a1.167 1.167 0 0 1-.003 1.851Z"
      fill="#FF4948" />
    <path
      d="M49.083 45.574a.583.583 0 0 0 .584-.583v-6.936l3.749 2.867-2.355 1.811a.583.583 0 0 0 .711.925l2.958-2.275a.583.583 0 0 0-.001-.926l-5.291-4.046a.584.584 0 0 0-.938.463v8.117c0 .322.261.583.583.583Zm5.647 10.043-2.958-2.275a.583.583 0 0 0-.711.925l2.355 1.811-3.75 2.867v-6.936a.583.583 0 1 0-1.166 0v8.116a.583.583 0 0 0 .938.464l5.29-4.046a.583.583 0 0 0 .002-.926Z"
      fill="#FF4948" />
  </symbol>
  <symbol viewBox="0 0 27 27" id="icon-buy-cart" xmlns="http://www.w3.org/2000/svg">
    <path
      d="M8.041 21.25a2.58 2.58 0 0 0-2.57 2.583 2.58 2.58 0 0 0 2.57 2.583 2.59 2.59 0 0 0 2.583-2.583 2.59 2.59 0 0 0-2.583-2.583ZM.291.583v2.583h2.583l4.65 9.804-1.743 3.165a2.497 2.497 0 0 0-.323 1.24 2.59 2.59 0 0 0 2.583 2.583h15.5v-2.583H8.584a.32.32 0 0 1-.323-.323l.038-.155 1.163-2.106h9.623c.968 0 1.821-.53 2.26-1.33l4.624-8.383c.104-.18.155-.4.155-.62 0-.71-.58-1.292-1.291-1.292H5.729L4.515.583H.29ZM20.958 21.25a2.58 2.58 0 0 0-2.57 2.583 2.58 2.58 0 0 0 2.57 2.583 2.59 2.59 0 0 0 2.583-2.583 2.59 2.59 0 0 0-2.583-2.583Z" />
  </symbol>
  <symbol viewBox="0 0 20 22" id="icon-cart" xmlns="http://www.w3.org/2000/svg">
    <path d="M4 1 1 5v14a2 2 0 0 0 2 2h14a2 2 0 0 0 2-2V5l-3-4H4ZM1 5h18" />
    <path d="M14 9a4 4 0 1 1-8 0" />
  </symbol>

  <symbol viewBox="0 0 98 98" id="icon-charge" xmlns="http://www.w3.org/2000/svg">
    <path
      d="M94.796 49c1.77 0 3.215 1.437 3.1 3.203a49 49 0 0 1-97.791 0C-.011 50.435 1.435 49 3.205 49s3.191 1.437 3.324 3.202a42.592 42.592 0 0 0 84.942 0C91.604 50.437 93.026 49 94.796 49Z"
      fill="#FF4948" />
    <path
      opacity=".5"
      d="M97 49c0 26.51-21.49 48-48 48S1 75.51 1 49 22.49 1 49 1s48 21.49 48 48ZM5.702 49c0 23.913 19.385 43.298 43.298 43.298S92.298 72.913 92.298 49 72.913 5.702 49 5.702 5.702 25.087 5.702 49Z"
      fill="#F68080" />
    <circle cx="48.5" cy="48.5" r="34.5" stroke="#FDD8D8" stroke-width="2" stroke-linecap="round" />
    <path
      d="M60.338 59.146h-7.234a.724.724 0 0 1 0-1.447h7.234c1.196 0 2.17-.973 2.17-2.17v-1.447c0-.399.324-.723.723-.723h1.434c.4 0 .723-.324.723-.723v-8.68c0-.4-.324-.724-.723-.724H63.23a.724.724 0 0 1-.723-.723v-1.447c0-1.196-.974-2.17-2.17-2.17h-4.34a.724.724 0 0 1 0-1.447h4.34a3.622 3.622 0 0 1 3.617 3.617v.723h.71c1.196 0 2.17.974 2.17 2.17v8.68c0 1.197-.974 2.17-2.17 2.17h-.71v.724a3.622 3.622 0 0 1-3.617 3.617Zm-18.934 0h-5.787A3.622 3.622 0 0 1 32 55.529V41.062a3.622 3.622 0 0 1 3.617-3.617h10.127a.724.724 0 0 1 0 1.447H35.617c-1.197 0-2.17.974-2.17 2.17V55.53c0 1.197.973 2.17 2.17 2.17h5.787a.724.724 0 0 1 0 1.447Z"
      fill="#FF4948" />
    <path
      d="M45.522 62.04a.723.723 0 0 1-.686-.95l3.03-9.178H42.19a.724.724 0 0 1-.594-1.135l10.02-14.467a.732.732 0 0 1 .883-.252.725.725 0 0 1 .418.819l-2.037 9.249h5.777c.275 0 .527.156.65.403a.725.725 0 0 1-.077.761L46.095 61.757a.719.719 0 0 1-.573.282Zm-1.95-11.574h5.295a.722.722 0 0 1 .685.95l-2.01 6.09 7.645-9.934h-5.206a.726.726 0 0 1-.708-.88l1.441-6.54-7.142 10.314Z"
      fill="#FF4948" />
  </symbol>

  <symbol viewBox="0 0 24 24" id="icon-eye-closed" xmlns="http://www.w3.org/2000/svg">
    <path
      d="M20 14.834C21.308 13.332 22 12 22 12s-3.636-7-10-7a8.595 8.595 0 0 0-2 .236M12 9a2.995 2.995 0 0 1 3 3M3 3l18 18m-9-6a2.997 2.997 0 0 1-2.959-2.5M4.147 9a17.09 17.09 0 0 0-.828 1C2.453 11.128 2 12 2 12s3.636 7 10 7c.341 0 .675-.02 1-.058" />
  </symbol>
  <symbol viewBox="0 0 24 24" id="icon-eye-open" xmlns="http://www.w3.org/2000/svg">
    <path d="M12 5C5.636 5 2 12 2 12s3.636 7 10 7 10-7 10-7-3.636-7-10-7Z" />
    <path d="M12 15a3 3 0 1 0 0-6 3 3 0 0 0 0 6Z" />
  </symbol>
  <symbol viewBox="0 0 13 22" id="icon-fb" xmlns="http://www.w3.org/2000/svg">
    <path d="M12 1H9a5 5 0 0 0-5 5v3H1v4h3v8h4v-8h3l1-4H8V6a1 1 0 0 1 1-1h3V1Z" />
  </symbol>

  <symbol viewBox="0 0 22 22" id="icon-insta" xmlns="http://www.w3.org/2000/svg">
    <path d="M16 1H6a5 5 0 0 0-5 5v10a5 5 0 0 0 5 5h10a5 5 0 0 0 5-5V6a5 5 0 0 0-5-5Z" />
    <path fill="var(--insta-center)" d="M15 10.37a4 4 0 1 1-7.914 1.174A4 4 0 0 1 15 10.37Zm1.5-4.87h.01" />
    <path d="M16.5 5.5H16.51" stroke="var(--insta-dot)" stroke-width="2" stroke-linecap="round" stroke-linejoin="round" />
  </symbol>

  <symbol viewBox="1 0.967 800.001 800.034" id="icon-logo" xmlns="http://www.w3.org/2000/svg">
    <path
      d="M801.001 400.984c0 220.923-179.086 400.017-400 400.017s-400-179.094-400-400.017C1.001 180.06 180.087.966 401.001.966s400 179.094 400 400.018z"
      fill="transparent" />
    <path
      d="M522.932 400.982c0-67.342-54.583-121.931-121.922-121.931-67.343 0-121.931 54.589-121.931 121.931 0 67.34 54.588 121.931 121.931 121.931 67.339 0 121.922-54.591 121.922-121.931"
      fill="var(--logo-color)" />
    <path
      d="M401.018.967c-38.11 0-74.924 5.442-109.841 15.397v216.222c31.58-20.638 69.288-32.681 109.833-32.681 111.043 0 201.072 90.025 201.072 201.077S512.053 602.059 401.01 602.059c-111.052 0-201.08-90.025-201.08-201.077 0-3.572.102-7.12.282-10.648l-.282.222V55.241C80.994 124.564 1 253.392 1 400.982 1 621.903 180.097 801 401.018 801 621.936 801 801 621.903 801 400.982 801 180.064 621.936.967 401.018.967"
      fill="var(--logo-color)" />
  </symbol>
  <symbol viewBox="0 0 41 29" id="icon-menu" xmlns="http://www.w3.org/2000/svg">
    <path d="M39.5 10.334H10.335M39.5 2H2m37.5 16.666H2M39.5 27H10.335" />
  </symbol>
  <symbol viewBox="0 0 98 98" id="icon-micro" xmlns="http://www.w3.org/2000/svg">
    <path
      d="M94.796 49c1.77 0 3.215 1.437 3.1 3.203a49 49 0 0 1-97.791 0C-.011 50.435 1.435 49 3.205 49s3.191 1.437 3.324 3.202a42.592 42.592 0 0 0 84.942 0C91.604 50.437 93.026 49 94.796 49Z"
      fill="#FF4948" />
    <g clip-path="url(#ma)">
      <path
        d="M38.388 40.552a.645.645 0 0 0-.912 0 7.934 7.934 0 0 0-2.341 5.647c0 2.133.831 4.138 2.341 5.648a.643.643 0 0 0 .912 0 .645.645 0 0 0 0-.912 6.653 6.653 0 0 1-1.964-4.736c0-1.788.697-3.47 1.964-4.735a.644.644 0 0 0 0-.912Zm17.919 3.188a.645.645 0 0 0-.644.645v.99h-1.454V38.51c0-3.145-2.562-5.704-5.71-5.704a5.713 5.713 0 0 0-5.71 5.704v6.866h-1.453v-.991a.644.644 0 1 0-1.29 0v3.802c0 3.786 2.506 6.998 5.946 8.067v3.479h-2.23c-1.231 0-2.233 1-2.233 2.23v1.353a.88.88 0 0 0 .88.878h3.195a.644.644 0 1 0 0-1.289h-2.786v-.941c0-.52.424-.942.945-.942h9.473c.52 0 .943.422.943.942v.941h-2.786a.645.645 0 1 0 0 1.29h3.197a.88.88 0 0 0 .878-.879v-1.352a2.234 2.234 0 0 0-2.232-2.231h-2.231v-3.479c3.441-1.07 5.947-4.281 5.947-8.067v-3.802a.645.645 0 0 0-.645-.645Zm-12.229-5.23a4.423 4.423 0 0 1 4.42-4.415 4.424 4.424 0 0 1 4.422 4.415v2.13h-8.842v-2.13Zm0 3.42h8.842v1.68h-8.842v-1.68Zm0 2.97h8.842v3.287a4.424 4.424 0 0 1-4.422 4.416 4.423 4.423 0 0 1-4.42-4.416V44.9Zm5.638 14.833H47.28v-3.188a8.485 8.485 0 0 0 2.435 0v3.188Zm5.947-11.546c0 3.947-3.214 7.157-7.165 7.157-3.949 0-7.162-3.21-7.162-7.157v-1.522h1.453v1.522a5.713 5.713 0 0 0 5.71 5.705c3.148 0 5.71-2.56 5.71-5.705v-1.522h1.454v1.522Zm6.076-9.85a.645.645 0 1 0-.911.912 9.762 9.762 0 0 1 2.883 6.95 9.762 9.762 0 0 1-2.883 6.951.645.645 0 0 0 .91.912A11.043 11.043 0 0 0 65 46.2c0-2.97-1.158-5.762-3.261-7.863Z"
        fill="#FF4948" />
      <path
        d="M59.522 40.552a.645.645 0 0 0-.911.912 6.651 6.651 0 0 1 1.965 4.735c0 1.788-.698 3.47-1.965 4.736a.645.645 0 0 0 .91.912 7.932 7.932 0 0 0 2.344-5.648 7.932 7.932 0 0 0-2.343-5.647ZM33.29 46.2a9.765 9.765 0 0 1 2.881-6.951.644.644 0 1 0-.911-.912A11.044 11.044 0 0 0 32 46.2c0 2.969 1.158 5.761 3.26 7.862a.643.643 0 0 0 .911 0 .645.645 0 0 0 0-.911 9.764 9.764 0 0 1-2.882-6.951Zm15.208 16.705a.645.645 0 0 0 0 1.29h.004a.643.643 0 0 0 .642-.645.646.646 0 0 0-.646-.645Z"
        fill="#FF4948" />
    </g>
    <path
      opacity=".5"
      d="M97 49c0 26.51-21.49 48-48 48S1 75.51 1 49 22.49 1 49 1s48 21.49 48 48ZM5.702 49c0 23.913 19.385 43.298 43.298 43.298S92.298 72.913 92.298 49 72.913 5.702 49 5.702 5.702 25.087 5.702 49Z"
      fill="#FF4948" />
    <circle cx="48.5" cy="48.5" r="34.5" stroke="#FDD8D8" stroke-width="2" stroke-linecap="round" />
    <defs>
      <clipPath id="ma"><path transform="translate(32 32)" d="M0 0h33v33H0z" /></clipPath>
    </defs>
  </symbol>
  <symbol viewBox="0 0 18 20" id="icon-profile" xmlns="http://www.w3.org/2000/svg">
    <path d="M17 19v-2a4 4 0 0 0-4-4H5a4 4 0 0 0-4 4v2M9 9a4 4 0 1 0 0-8 4 4 0 0 0 0 8Z" />
  </symbol>
  <symbol viewBox="0 0 20 20" id="icon-search" xmlns="http://www.w3.org/2000/svg">
    <path d="M9 17A8 8 0 1 0 9 1a8 8 0 0 0 0 16Zm10 2-4.35-4.35" />
  </symbol>
  <symbol viewBox="0 0 26 24" id="icon-star" xmlns="http://www.w3.org/2000/svg">
    <path
      d="M12.252.927c.299-.921 1.602-.921 1.902 0l2.237 6.887a1 1 0 0 0 .952.69h7.24c.97 0 1.372 1.24.588 1.81l-5.858 4.256a1 1 0 0 0-.363 1.118l2.238 6.887c.299.921-.756 1.687-1.54 1.118l-5.857-4.256a1 1 0 0 0-1.176 0l-5.858 4.256c-.784.57-1.839-.197-1.54-1.118l2.238-6.887a1 1 0 0 0-.363-1.118l-5.858-4.256c-.784-.57-.381-1.81.588-1.81h7.24a1 1 0 0 0 .952-.69L12.252.927Z" />
  </symbol>
  <symbol viewBox="0 0 24 20" id="icon-twit" xmlns="http://www.w3.org/2000/svg">
    <path
      d="M23 1.01a10.9 10.9 0 0 1-3.14 1.53 4.48 4.48 0 0 0-7.86 3v1a10.66 10.66 0 0 1-9-4.53s-4 9 5 13a11.64 11.64 0 0 1-7 2c9 5 20 0 20-11.5 0-.278-.028-.556-.08-.83A7.72 7.72 0 0 0 23 1.01Z" />
  </symbol>
</svg>
